<svg width="24" height="24" viewBox="0 0 24 24" fill="none" xmlns="http://www.w3.org/2000/svg">
<rect opacity="0.01" width="24" height="24" fill="white" fill-opacity="0.01"/>
<path fill-rule="evenodd" clip-rule="evenodd" d="M20.1818 7H16.7045V6.6C16.7045 4.06 14.5977 2 12 2C9.40227 2 7.29545 4.06 7.29545 6.6V7H3.81818C3.36562 7 3 7.3575 3 7.8V21.2C3 21.6425 3.36562 22 3.81818 22H20.1818C20.6344 22 21 21.6425 21 21.2V7.8C21 7.3575 20.6344 7 20.1818 7ZM9.13636 6.6C9.13636 5.0525 10.4173 3.8 12 3.8C13.5827 3.8 14.8636 5.0525 14.8636 6.6V7H9.13636V6.6ZM4.84091 20.2H19.1591V8.8H16.7045V11C16.7045 11.11 16.6125 11.2 16.5 11.2H15.0682C14.9557 11.2 14.8636 11.11 14.8636 11V8.8H9.13636V11C9.13636 11.11 9.04432 11.2 8.93182 11.2H7.5C7.3875 11.2 7.29545 11.11 7.29545 11V8.8H4.84091V20.2Z" fill="#A77366"/>
</svg>
