<svg width="24" height="24" viewBox="0 0 24 24" fill="none" xmlns="http://www.w3.org/2000/svg">
<path fill-rule="evenodd" clip-rule="evenodd" d="M10.5455 3C10.5455 2.44772 10.0977 2 9.54545 2H3.81818L3.66906 2.00603C2.73466 2.08188 2 2.86424 2 3.81818V20.1818L2.00603 20.3309C2.08188 21.2653 2.86424 22 3.81818 22H9.54545L9.66208 21.9933C10.1594 21.9355 10.5455 21.5128 10.5455 21L10.5387 20.8834C10.481 20.386 10.0583 20 9.54545 20H4V4H9.54545L9.66208 3.99327C10.1594 3.93551 10.5455 3.51284 10.5455 3ZM15.9987 6.99735C16.3592 6.63691 16.9264 6.60925 17.3187 6.91433L17.4129 6.99753L21.7072 11.293C22.0676 11.6535 22.0953 12.2206 21.7904 12.6128L21.7867 12.6169C21.7563 12.6561 21.723 12.6929 21.6872 12.7271L17.4129 17.0025C17.0224 17.393 16.3892 17.3931 15.9987 17.0027C15.6381 16.6422 15.6103 16.075 15.9153 15.6827L15.9985 15.5884L18.5814 13.0034H9.54545C8.99317 13.0034 8.54545 12.5557 8.54545 12.0034C8.54545 11.4906 8.93149 11.0679 9.42883 11.0101L9.54545 11.0034H18.5897L15.9985 8.41156C15.638 8.05103 15.6104 7.48379 15.9155 7.09154L15.9987 6.99735Z" fill="#A77366"/>
</svg>
