<svg width="24" height="24" viewBox="0 0 24 24" fill="none" xmlns="http://www.w3.org/2000/svg">
<path fill-rule="evenodd" clip-rule="evenodd" d="M2 12.0704C2 6.54759 6.47715 2.07043 12 2.07043C17.5228 2.07043 22 6.54759 22 12.0704C22 15.0148 20.7275 17.662 18.7024 19.492C18.6933 19.5005 18.6839 19.5089 18.6744 19.5172C16.9043 21.1048 14.5649 22.0704 12 22.0704C9.43527 22.0704 7.09605 21.1049 5.32598 19.5175C5.31619 19.5091 5.30659 19.5004 5.29718 19.4916C3.27235 17.6616 2 15.0146 2 12.0704ZM7.28184 18.5317C8.6046 19.4992 10.2356 20.0704 12 20.0704C13.7644 20.0704 15.3954 19.4992 16.7182 18.5317C15.6527 17.0037 13.8978 16.0712 12.0022 16.0704C12.0015 16.0704 12.0007 16.0704 12 16.0704C11.9993 16.0704 11.9985 16.0704 11.9978 16.0704C10.1022 16.0712 8.34733 17.0037 7.28184 18.5317ZM8.74994 14.7845C7.60172 15.3149 6.59056 16.1227 5.8164 17.1465C4.6814 15.7655 4 13.9975 4 12.0704C4 7.65216 7.58172 4.07043 12 4.07043C16.4183 4.07043 20 7.65216 20 12.0704C20 13.9976 19.3186 15.7655 18.1836 17.1465C17.4094 16.1227 16.3983 15.3149 15.2501 14.7845C16.1733 13.918 16.75 12.6865 16.75 11.3204C16.75 8.69708 14.6234 6.57043 12 6.57043C9.37665 6.57043 7.25 8.69708 7.25 11.3204C7.25 12.6865 7.8267 13.918 8.74994 14.7845Z" fill="#A77366"/>
</svg>
